<?xml version="1.0" encoding="UTF-8"?>
<svg version="1.1" xmlns="http://www.w3.org/2000/svg" width="91" height="72">
<path d="M0 0 C30.03 0 60.06 0 91 0 C91 23.76 91 47.52 91 72 C60.97 72 30.94 72 0 72 C0 48.24 0 24.48 0 0 Z " fill="#271944" transform="translate(0,0)"/>
<path d="M0 0 C1.05896484 0.53044922 2.11792969 1.06089844 3.20898438 1.60742188 C4.29888672 2.15849609 5.38878906 2.70957031 6.51171875 3.27734375 C7.62095703 3.83228516 8.73019531 4.38722656 9.87304688 4.95898438 C18.05878618 9.07441118 18.05878618 9.07441118 19.19921875 10.21484375 C19.28705417 12.43339639 19.30616484 14.65472871 19.296875 16.875 C19.29546005 17.5394664 19.2940451 18.2039328 19.29258728 18.88853455 C19.28697393 21.01818274 19.27441929 23.14772714 19.26171875 25.27734375 C19.25670546 26.71809744 19.25214226 28.15885278 19.24804688 29.59960938 C19.2370002 33.13805477 19.21972667 36.67643914 19.19921875 40.21484375 C15.43008315 42.1958118 11.65806329 44.17114137 7.88330078 46.14135742 C6.60027147 46.81202447 5.31803505 47.48421069 4.03662109 48.15795898 C2.19185732 49.12756911 0.34428685 50.0916336 -1.50390625 51.0546875 C-2.61411133 51.63597412 -3.72431641 52.21726074 -4.86816406 52.81616211 C-9.6269659 55.08582376 -9.6269659 55.08582376 -11.80078125 55.21484375 C-14.80932617 54.05908203 -14.80932617 54.05908203 -18.28125 52.28515625 C-18.89470779 51.97536835 -19.50816559 51.66558044 -20.14021301 51.34640503 C-22.09545708 50.35532459 -24.04161904 49.34765776 -25.98828125 48.33984375 C-27.31001158 47.66821636 -28.63227193 46.99763092 -29.95507812 46.328125 C-39.58823732 41.42738768 -39.58823732 41.42738768 -40.80078125 40.21484375 C-40.88861667 37.99629111 -40.90772734 35.77495879 -40.8984375 33.5546875 C-40.89702255 32.8902211 -40.8956076 32.2257547 -40.89414978 31.54115295 C-40.88853643 29.41150476 -40.87598179 27.28196036 -40.86328125 25.15234375 C-40.85826796 23.71159006 -40.85370476 22.27083472 -40.84960938 20.83007812 C-40.8385627 17.29163273 -40.82128917 13.75324836 -40.80078125 10.21484375 C-36.09654235 7.72653752 -31.38853381 5.24594537 -26.671875 2.78125 C-23.93010361 1.34627978 -21.21972664 -0.11273531 -18.5234375 -1.6328125 C-17.68683594 -2.09558594 -16.85023437 -2.55835938 -15.98828125 -3.03515625 C-15.30121094 -3.4321875 -14.61414063 -3.82921875 -13.90625 -4.23828125 C-9.2219639 -5.45497894 -4.12672556 -2.07212404 0 0 Z " fill="#5A2B9C" transform="translate(56.80078125,8.78515625)"/>
<path d="M0 0 C1.31750244 0.66249756 1.31750244 0.66249756 2.66162109 1.33837891 C3.75555176 1.89444824 4.84948242 2.45051758 5.9765625 3.0234375 C9.4828125 4.7971875 12.9890625 6.5709375 16.6015625 8.3984375 C16.6015625 17.6384375 16.6015625 26.8784375 16.6015625 36.3984375 C12.6015625 38.3984375 12.6015625 38.3984375 10.5546875 38.38671875 C7.53337899 36.85793664 6.79048349 34.59095684 5.3515625 31.5859375 C4.57039063 29.99845703 4.57039063 29.99845703 3.7734375 28.37890625 C2.6015625 25.3984375 2.6015625 25.3984375 2.6015625 21.3984375 C1.2815625 21.0684375 -0.0384375 20.7384375 -1.3984375 20.3984375 C-0.05575095 16.06052712 1.53368929 12.53418393 3.6015625 8.3984375 C-5.6384375 8.3984375 -14.8784375 8.3984375 -24.3984375 8.3984375 C-22.7484375 12.0284375 -21.0984375 15.6584375 -19.3984375 19.3984375 C-21.3784375 20.3884375 -21.3784375 20.3884375 -23.3984375 21.3984375 C-23.80095066 23.38567032 -24.12491573 25.38938376 -24.3984375 27.3984375 C-25.80859375 30.390625 -25.80859375 30.390625 -27.4609375 33.2734375 C-28.00878906 34.24023438 -28.55664062 35.20703125 -29.12109375 36.203125 C-29.54261719 36.92757812 -29.96414062 37.65203125 -30.3984375 38.3984375 C-35.1484375 37.5234375 -35.1484375 37.5234375 -37.3984375 36.3984375 C-37.3984375 27.1584375 -37.3984375 17.9184375 -37.3984375 8.3984375 C-33.81408429 6.49121389 -30.22647703 4.59796133 -26.61962891 2.734375 C-25.3957992 2.09737504 -24.17566085 1.45322874 -22.95947266 0.80175781 C-21.20691095 -0.13542564 -19.43948097 -1.04463478 -17.671875 -1.953125 C-16.61403809 -2.50822754 -15.55620117 -3.06333008 -14.46630859 -3.63525391 C-9.04460437 -5.34296561 -4.82989599 -2.44335915 0 0 Z " fill="#581C88" transform="translate(56.3984375,11.6015625)"/>
<path d="M0 0 C1.05896484 0.53044922 2.11792969 1.06089844 3.20898438 1.60742188 C4.29888672 2.15849609 5.38878906 2.70957031 6.51171875 3.27734375 C7.62095703 3.83228516 8.73019531 4.38722656 9.87304688 4.95898438 C18.05878618 9.07441118 18.05878618 9.07441118 19.19921875 10.21484375 C19.28705417 12.43339639 19.30616484 14.65472871 19.296875 16.875 C19.29546005 17.5394664 19.2940451 18.2039328 19.29258728 18.88853455 C19.28697393 21.01818274 19.27441929 23.14772714 19.26171875 25.27734375 C19.25670546 26.71809744 19.25214226 28.15885278 19.24804688 29.59960938 C19.2370002 33.13805477 19.21972667 36.67643914 19.19921875 40.21484375 C15.43008315 42.1958118 11.65806329 44.17114137 7.88330078 46.14135742 C6.60027147 46.81202447 5.31803505 47.48421069 4.03662109 48.15795898 C2.19185732 49.12756911 0.34428685 50.0916336 -1.50390625 51.0546875 C-2.61411133 51.63597412 -3.72431641 52.21726074 -4.86816406 52.81616211 C-9.6269659 55.08582376 -9.6269659 55.08582376 -11.80078125 55.21484375 C-14.80932617 54.05908203 -14.80932617 54.05908203 -18.28125 52.28515625 C-18.89470779 51.97536835 -19.50816559 51.66558044 -20.14021301 51.34640503 C-22.09545708 50.35532459 -24.04161904 49.34765776 -25.98828125 48.33984375 C-27.31001158 47.66821636 -28.63227193 46.99763092 -29.95507812 46.328125 C-39.58823732 41.42738768 -39.58823732 41.42738768 -40.80078125 40.21484375 C-40.88861667 37.99629111 -40.90772734 35.77495879 -40.8984375 33.5546875 C-40.89702255 32.8902211 -40.8956076 32.2257547 -40.89414978 31.54115295 C-40.88853643 29.41150476 -40.87598179 27.28196036 -40.86328125 25.15234375 C-40.85826796 23.71159006 -40.85370476 22.27083472 -40.84960938 20.83007812 C-40.8385627 17.29163273 -40.82128917 13.75324836 -40.80078125 10.21484375 C-36.09654235 7.72653752 -31.38853381 5.24594537 -26.671875 2.78125 C-23.93010361 1.34627978 -21.21972664 -0.11273531 -18.5234375 -1.6328125 C-17.68683594 -2.09558594 -16.85023437 -2.55835938 -15.98828125 -3.03515625 C-15.30121094 -3.4321875 -14.61414063 -3.82921875 -13.90625 -4.23828125 C-9.2219639 -5.45497894 -4.12672556 -2.07212404 0 0 Z M-17.68359375 1.05859375 C-18.85019531 1.64511719 -20.01679687 2.23164063 -21.21875 2.8359375 C-22.45447052 3.46215387 -23.69014704 4.08845708 -24.92578125 4.71484375 C-26.16908677 5.34151114 -27.41257418 5.96781782 -28.65625 6.59375 C-31.70622197 8.13055758 -34.75373231 9.67224874 -37.80078125 11.21484375 C-37.80078125 20.45484375 -37.80078125 29.69484375 -37.80078125 39.21484375 C-32.91165912 41.66135814 -32.91165912 41.66135814 -28.01660156 44.09594727 C-24.88054215 45.65066279 -21.78129643 47.22569887 -18.72265625 48.9296875 C-17.8821875 49.39503906 -17.04171875 49.86039063 -16.17578125 50.33984375 C-15.46164063 50.75492188 -14.7475 51.17 -14.01171875 51.59765625 C-9.37990335 52.89063652 -4.50211566 49.68728351 -0.40234375 47.61328125 C0.91515869 46.95078369 0.91515869 46.95078369 2.25927734 46.27490234 C3.35320801 45.71883301 4.44713867 45.16276367 5.57421875 44.58984375 C10.83359375 41.92921875 10.83359375 41.92921875 16.19921875 39.21484375 C16.19921875 29.97484375 16.19921875 20.73484375 16.19921875 11.21484375 C12.53485797 9.35972925 8.86940797 7.50708443 5.20068359 5.66064453 C3.95256153 5.03154944 2.7051607 4.40102134 1.45849609 3.76904297 C-0.33176236 2.86180778 -2.12482753 1.96011779 -3.91796875 1.05859375 C-4.99675293 0.51396484 -6.07553711 -0.03066406 -7.18701172 -0.59179688 C-11.63035424 -2.62047782 -13.45149071 -1.07800196 -17.68359375 1.05859375 Z " fill="#5A30BB" transform="translate(56.80078125,8.78515625)"/>
<path d="M0 0 C9.9 0 19.8 0 30 0 C28.02 4.29 26.04 8.58 24 13 C26.475 13.495 26.475 13.495 29 14 C29 14.66 29 15.32 29 16 C27.02 16 25.04 16 23 16 C22.86722656 16.62648438 22.73445313 17.25296875 22.59765625 17.8984375 C22.42105469 18.71570313 22.24445312 19.53296875 22.0625 20.375 C21.88847656 21.18710937 21.71445312 21.99921875 21.53515625 22.8359375 C21 25 21 25 20 27 C19.01 26.67 18.02 26.34 17 26 C15.98439904 23.48741496 15.14382103 21.08646581 14.375 18.5 C13.29627722 13.89246743 13.29627722 13.89246743 11 10 C10.34 11.98 9.68 13.96 9 16 C6.36 16 3.72 16 1 16 C1.33 15.01 1.66 14.02 2 13 C2.99 12.67 3.98 12.34 5 12 C3.35 8.04 1.7 4.08 0 0 Z " fill="#783FAF" transform="translate(31,19)"/>
<path d="M0 0 C0.66 0.33 1.32 0.66 2 1 C2 1.66 2 2.32 2 3 C-1.95509495 5.00645249 -5.91459021 7.00406136 -9.875 9 C-11.00292969 9.57234375 -12.13085938 10.1446875 -13.29296875 10.734375 C-14.36933594 11.27578125 -15.44570313 11.8171875 -16.5546875 12.375 C-17.54968262 12.87773437 -18.54467773 13.38046875 -19.56982422 13.8984375 C-22 15 -22 15 -24 15 C-24 24.24 -24 33.48 -24 43 C-22.35 43.66 -20.7 44.32 -19 45 C-17.73836986 45.56420923 -16.48145966 46.13914068 -15.23046875 46.7265625 C-14.56982422 47.0359375 -13.90917969 47.3453125 -13.22851562 47.6640625 C-12.21821289 48.13972656 -12.21821289 48.13972656 -11.1875 48.625 C-10.49462891 48.94984375 -9.80175781 49.2746875 -9.08789062 49.609375 C-7.39133977 50.40499885 -5.69558835 51.20232699 -4 52 C-4 52.33 -4 52.66 -4 53 C-10.00469297 53.69063561 -13.82604953 51.34827618 -18.875 48.5 C-21.55625 47.015 -24.2375 45.53 -27 44 C-27 34.1 -27 24.2 -27 14 C-24.03 12.4325 -21.06 10.865 -18 9.25 C-17.08089844 8.7643457 -16.16179688 8.27869141 -15.21484375 7.77832031 C-13.62287151 6.93932637 -12.02895784 6.10401057 -10.43359375 5.27148438 C-8.83786044 4.43775854 -7.24650872 3.59558022 -5.66015625 2.74414062 C-3.80392989 1.76903437 -1.90501688 0.87596758 0 0 Z " fill="#7831D2" transform="translate(43,5)"/>
<path d="M0 0 C0.99 0 1.98 0 3 0 C3.34933594 1.07121094 3.69867188 2.14242188 4.05859375 3.24609375 C4.51807145 4.64328104 4.97771546 6.04041365 5.4375 7.4375 C5.66759766 8.14455078 5.89769531 8.85160156 6.13476562 9.58007812 C7.07421147 13.06306795 7.07421147 13.06306795 9 16 C9.66 14.35 10.32 12.7 11 11 C13.64 11 16.28 11 19 11 C19 11.66 19 12.32 19 13 C17.02 13 15.04 13 13 13 C12.86722656 13.62648438 12.73445313 14.25296875 12.59765625 14.8984375 C12.33275391 16.12433594 12.33275391 16.12433594 12.0625 17.375 C11.88847656 18.18710937 11.71445312 18.99921875 11.53515625 19.8359375 C11 22 11 22 10 24 C9.01 23.67 8.02 23.34 7 23 C5.98439904 20.48741496 5.14382103 18.08646581 4.375 15.5 C3.29627722 10.89246743 3.29627722 10.89246743 1 7 C0.34 8.98 -0.32 10.96 -1 13 C-3.64 13 -6.28 13 -9 13 C-9 12.34 -9 11.68 -9 11 C-7.02 11 -5.04 11 -3 11 C-2.814375 9.39125 -2.814375 9.39125 -2.625 7.75 C-2.10356064 4.62136385 -1.59911746 2.66519576 0 0 Z " fill="#CEA8F5" transform="translate(41,22)"/>
<path d="M0 0 C0.66 0.33 1.32 0.66 2 1 C2 1.66 2 2.32 2 3 C-1.85832329 5.07439619 -5.73876774 7.10344204 -9.625 9.125 C-10.71941406 9.71410156 -11.81382813 10.30320312 -12.94140625 10.91015625 C-14.53662109 11.73193359 -14.53662109 11.73193359 -16.1640625 12.5703125 C-17.62513428 13.34012451 -17.62513428 13.34012451 -19.11572266 14.12548828 C-24.58245221 15.78299846 -29.18936584 12.51985599 -34 10 C-34 9.67 -34 9.34 -34 9 C-28.48839863 8.73754279 -28.48839863 8.73754279 -25.4921875 10.34765625 C-19.77570177 11.4155009 -15.68386975 8.2831951 -10.75 5.5625 C-8.7691993 4.49464526 -6.78498692 3.43308656 -4.796875 2.37890625 C-3.92385742 1.9001001 -3.05083984 1.42129395 -2.15136719 0.92797852 C-1.44141602 0.62174561 -0.73146484 0.3155127 0 0 Z " fill="#4E2EAE" transform="translate(69,49)"/>
<path d="M0 0 C1.6645255 2.49678825 2.44736157 4.02421568 3.2890625 6.79296875 C3.61777344 7.8612793 3.61777344 7.8612793 3.953125 8.95117188 C4.17484375 9.68916016 4.3965625 10.42714844 4.625 11.1875 C4.85445312 11.93708984 5.08390625 12.68667969 5.3203125 13.45898438 C5.88459381 15.30465449 6.44288216 17.15215496 7 19 C5.68 19.33 4.36 19.66 3 20 C2.16151196 18.54462432 1.32936066 17.08559627 0.5 15.625 C0.0359375 14.81289063 -0.428125 14.00078125 -0.90625 13.1640625 C-2 11 -2 11 -2 9 C-4.31 9 -6.62 9 -9 9 C-9 8.67 -9 8.34 -9 8 C-6.69 8 -4.38 8 -2 8 C-1.7834375 6.576875 -1.7834375 6.576875 -1.5625 5.125 C-1 2 -1 2 0 0 Z " fill="#7E48B7" transform="translate(42,27)"/>
<path d="M0 0 C0.66 0.33 1.32 0.66 2 1 C2 1.66 2 2.32 2 3 C0.13308826 4.01501998 -1.74395344 5.01142079 -3.625 6 C-4.66914062 6.556875 -5.71328125 7.11375 -6.7890625 7.6875 C-10.14146595 9.0578255 -12.41954936 9.2580505 -16 9 C-12.82117052 6.45079375 -9.50731355 4.58846828 -5.875 2.75 C-4.82054688 2.20859375 -3.76609375 1.6671875 -2.6796875 1.109375 C-1.79539062 0.74328125 -0.91109375 0.3771875 0 0 Z " fill="#4C37B4" transform="translate(69,49)"/>
<path d="M0 0 C0.66 0 1.32 0 2 0 C5 5.75 5 5.75 5 8 C2.36 8 -0.28 8 -3 8 C-1.125 2.25 -1.125 2.25 0 0 Z " fill="#5A2A9A" transform="translate(45,11)"/>
<path d="M0 0 C4.9723422 1.49170266 9.41845739 3.60457417 14 6 C14 6.33 14 6.66 14 7 C8.34388537 7.56561146 4.77357872 5.71391278 0 3 C0 2.01 0 1.02 0 0 Z " fill="#5E3AC4" transform="translate(25,51)"/>
<path d="M0 0 C2.97 0 5.94 0 9 0 C7.3125 1.625 7.3125 1.625 5 3 C2.25 2.1875 2.25 2.1875 0 1 C0 0.67 0 0.34 0 0 Z " fill="#571D8A" transform="translate(42,58)"/>
</svg>
